<mxfile host="Electron" modified="2024-02-12T07:34:03.885Z" agent="Mozilla/5.0 (Windows NT 10.0; Win64; x64) AppleWebKit/537.36 (KHTML, like Gecko) draw.io/23.0.2 Chrome/120.0.6099.109 Electron/28.1.0 Safari/537.36" etag="6W1f6Z988E78y4JhZTiA" version="23.0.2" type="device">
  <diagram name="Seite-1" id="LqFMKiP74ymYuKTbxMgZ">
    <mxGraphModel dx="2261" dy="836" grid="1" gridSize="10" guides="1" tooltips="1" connect="1" arrows="1" fold="1" page="1" pageScale="1" pageWidth="827" pageHeight="1169" math="0" shadow="0">
      <root>
        <mxCell id="0" />
        <mxCell id="1" parent="0" />
        <mxCell id="kqvG3StUOLTu-S0hy7yG-25" style="edgeStyle=orthogonalEdgeStyle;rounded=0;orthogonalLoop=1;jettySize=auto;html=1;entryX=0.5;entryY=0;entryDx=0;entryDy=0;curved=1;" edge="1" parent="1" source="kqvG3StUOLTu-S0hy7yG-1" target="kqvG3StUOLTu-S0hy7yG-2">
          <mxGeometry relative="1" as="geometry" />
        </mxCell>
        <mxCell id="kqvG3StUOLTu-S0hy7yG-26" style="edgeStyle=orthogonalEdgeStyle;rounded=0;orthogonalLoop=1;jettySize=auto;html=1;entryX=0.5;entryY=0;entryDx=0;entryDy=0;curved=1;" edge="1" parent="1" source="kqvG3StUOLTu-S0hy7yG-1" target="kqvG3StUOLTu-S0hy7yG-3">
          <mxGeometry relative="1" as="geometry" />
        </mxCell>
        <mxCell id="kqvG3StUOLTu-S0hy7yG-27" style="edgeStyle=orthogonalEdgeStyle;rounded=0;orthogonalLoop=1;jettySize=auto;html=1;curved=1;" edge="1" parent="1" source="kqvG3StUOLTu-S0hy7yG-1" target="kqvG3StUOLTu-S0hy7yG-8">
          <mxGeometry relative="1" as="geometry" />
        </mxCell>
        <mxCell id="kqvG3StUOLTu-S0hy7yG-28" style="edgeStyle=orthogonalEdgeStyle;rounded=0;orthogonalLoop=1;jettySize=auto;html=1;curved=1;" edge="1" parent="1" source="kqvG3StUOLTu-S0hy7yG-1" target="kqvG3StUOLTu-S0hy7yG-7">
          <mxGeometry relative="1" as="geometry" />
        </mxCell>
        <mxCell id="kqvG3StUOLTu-S0hy7yG-29" style="edgeStyle=orthogonalEdgeStyle;rounded=0;orthogonalLoop=1;jettySize=auto;html=1;entryX=0.5;entryY=0;entryDx=0;entryDy=0;curved=1;" edge="1" parent="1" source="kqvG3StUOLTu-S0hy7yG-1" target="kqvG3StUOLTu-S0hy7yG-6">
          <mxGeometry relative="1" as="geometry" />
        </mxCell>
        <mxCell id="kqvG3StUOLTu-S0hy7yG-1" value="Home" style="ellipse;whiteSpace=wrap;html=1;" vertex="1" parent="1">
          <mxGeometry x="400" y="60" width="66" height="70" as="geometry" />
        </mxCell>
        <mxCell id="kqvG3StUOLTu-S0hy7yG-44" style="edgeStyle=orthogonalEdgeStyle;rounded=0;orthogonalLoop=1;jettySize=auto;html=1;entryX=0.5;entryY=0;entryDx=0;entryDy=0;" edge="1" parent="1" source="kqvG3StUOLTu-S0hy7yG-2" target="kqvG3StUOLTu-S0hy7yG-22">
          <mxGeometry relative="1" as="geometry" />
        </mxCell>
        <mxCell id="kqvG3StUOLTu-S0hy7yG-45" style="edgeStyle=orthogonalEdgeStyle;rounded=0;orthogonalLoop=1;jettySize=auto;html=1;" edge="1" parent="1" source="kqvG3StUOLTu-S0hy7yG-2" target="kqvG3StUOLTu-S0hy7yG-24">
          <mxGeometry relative="1" as="geometry" />
        </mxCell>
        <mxCell id="kqvG3StUOLTu-S0hy7yG-2" value="Job" style="rounded=1;whiteSpace=wrap;html=1;" vertex="1" parent="1">
          <mxGeometry x="-200" y="250" width="80" height="40" as="geometry" />
        </mxCell>
        <mxCell id="kqvG3StUOLTu-S0hy7yG-41" style="edgeStyle=orthogonalEdgeStyle;rounded=0;orthogonalLoop=1;jettySize=auto;html=1;entryX=0.5;entryY=0;entryDx=0;entryDy=0;" edge="1" parent="1" source="kqvG3StUOLTu-S0hy7yG-3" target="kqvG3StUOLTu-S0hy7yG-18">
          <mxGeometry relative="1" as="geometry" />
        </mxCell>
        <mxCell id="kqvG3StUOLTu-S0hy7yG-42" style="edgeStyle=orthogonalEdgeStyle;rounded=0;orthogonalLoop=1;jettySize=auto;html=1;" edge="1" parent="1" source="kqvG3StUOLTu-S0hy7yG-3" target="kqvG3StUOLTu-S0hy7yG-20">
          <mxGeometry relative="1" as="geometry">
            <Array as="points">
              <mxPoint x="140" y="310" />
              <mxPoint x="205" y="310" />
            </Array>
          </mxGeometry>
        </mxCell>
        <mxCell id="kqvG3StUOLTu-S0hy7yG-3" value="Company" style="rounded=1;whiteSpace=wrap;html=1;" vertex="1" parent="1">
          <mxGeometry x="100" y="250" width="80" height="40" as="geometry" />
        </mxCell>
        <mxCell id="kqvG3StUOLTu-S0hy7yG-4" value="Register" style="rounded=1;whiteSpace=wrap;html=1;" vertex="1" parent="1">
          <mxGeometry x="1050" y="320" width="80" height="40" as="geometry" />
        </mxCell>
        <mxCell id="kqvG3StUOLTu-S0hy7yG-5" value="Login" style="rounded=1;whiteSpace=wrap;html=1;" vertex="1" parent="1">
          <mxGeometry x="940" y="320" width="80" height="40" as="geometry" />
        </mxCell>
        <mxCell id="kqvG3StUOLTu-S0hy7yG-30" style="edgeStyle=orthogonalEdgeStyle;rounded=0;orthogonalLoop=1;jettySize=auto;html=1;entryX=0.5;entryY=0;entryDx=0;entryDy=0;" edge="1" parent="1" source="kqvG3StUOLTu-S0hy7yG-6" target="kqvG3StUOLTu-S0hy7yG-5">
          <mxGeometry relative="1" as="geometry" />
        </mxCell>
        <mxCell id="kqvG3StUOLTu-S0hy7yG-31" style="edgeStyle=orthogonalEdgeStyle;rounded=0;orthogonalLoop=1;jettySize=auto;html=1;entryX=0.5;entryY=0;entryDx=0;entryDy=0;" edge="1" parent="1" source="kqvG3StUOLTu-S0hy7yG-6" target="kqvG3StUOLTu-S0hy7yG-4">
          <mxGeometry relative="1" as="geometry" />
        </mxCell>
        <mxCell id="kqvG3StUOLTu-S0hy7yG-6" value="Auth" style="rounded=1;whiteSpace=wrap;html=1;" vertex="1" parent="1">
          <mxGeometry x="1000" y="250" width="80" height="40" as="geometry" />
        </mxCell>
        <mxCell id="kqvG3StUOLTu-S0hy7yG-32" style="edgeStyle=orthogonalEdgeStyle;rounded=0;orthogonalLoop=1;jettySize=auto;html=1;entryX=0.5;entryY=0;entryDx=0;entryDy=0;" edge="1" parent="1" source="kqvG3StUOLTu-S0hy7yG-7" target="kqvG3StUOLTu-S0hy7yG-9">
          <mxGeometry relative="1" as="geometry" />
        </mxCell>
        <mxCell id="kqvG3StUOLTu-S0hy7yG-33" style="edgeStyle=orthogonalEdgeStyle;rounded=0;orthogonalLoop=1;jettySize=auto;html=1;" edge="1" parent="1" source="kqvG3StUOLTu-S0hy7yG-7" target="kqvG3StUOLTu-S0hy7yG-11">
          <mxGeometry relative="1" as="geometry" />
        </mxCell>
        <mxCell id="kqvG3StUOLTu-S0hy7yG-7" value="User" style="rounded=1;whiteSpace=wrap;html=1;" vertex="1" parent="1">
          <mxGeometry x="700" y="250" width="80" height="40" as="geometry" />
        </mxCell>
        <mxCell id="kqvG3StUOLTu-S0hy7yG-35" style="edgeStyle=orthogonalEdgeStyle;rounded=0;orthogonalLoop=1;jettySize=auto;html=1;entryX=0.5;entryY=0;entryDx=0;entryDy=0;" edge="1" parent="1" source="kqvG3StUOLTu-S0hy7yG-8" target="kqvG3StUOLTu-S0hy7yG-12">
          <mxGeometry relative="1" as="geometry" />
        </mxCell>
        <mxCell id="kqvG3StUOLTu-S0hy7yG-36" style="edgeStyle=orthogonalEdgeStyle;rounded=0;orthogonalLoop=1;jettySize=auto;html=1;entryX=0.5;entryY=0;entryDx=0;entryDy=0;" edge="1" parent="1" source="kqvG3StUOLTu-S0hy7yG-8" target="kqvG3StUOLTu-S0hy7yG-13">
          <mxGeometry relative="1" as="geometry" />
        </mxCell>
        <mxCell id="kqvG3StUOLTu-S0hy7yG-8" value="Catagory" style="rounded=1;whiteSpace=wrap;html=1;" vertex="1" parent="1">
          <mxGeometry x="400" y="250" width="80" height="40" as="geometry" />
        </mxCell>
        <mxCell id="kqvG3StUOLTu-S0hy7yG-34" style="edgeStyle=orthogonalEdgeStyle;rounded=0;orthogonalLoop=1;jettySize=auto;html=1;entryX=0.5;entryY=0;entryDx=0;entryDy=0;" edge="1" parent="1" source="kqvG3StUOLTu-S0hy7yG-9" target="kqvG3StUOLTu-S0hy7yG-10">
          <mxGeometry relative="1" as="geometry" />
        </mxCell>
        <mxCell id="kqvG3StUOLTu-S0hy7yG-9" value="UserList" style="rounded=1;whiteSpace=wrap;html=1;" vertex="1" parent="1">
          <mxGeometry x="640" y="320" width="80" height="40" as="geometry" />
        </mxCell>
        <mxCell id="kqvG3StUOLTu-S0hy7yG-10" value="UserDetail" style="rounded=1;whiteSpace=wrap;html=1;" vertex="1" parent="1">
          <mxGeometry x="640" y="390" width="80" height="40" as="geometry" />
        </mxCell>
        <mxCell id="kqvG3StUOLTu-S0hy7yG-11" value="CreateUser" style="rounded=1;whiteSpace=wrap;html=1;" vertex="1" parent="1">
          <mxGeometry x="750" y="320" width="80" height="40" as="geometry" />
        </mxCell>
        <mxCell id="kqvG3StUOLTu-S0hy7yG-37" style="edgeStyle=orthogonalEdgeStyle;rounded=0;orthogonalLoop=1;jettySize=auto;html=1;" edge="1" parent="1" source="kqvG3StUOLTu-S0hy7yG-12" target="kqvG3StUOLTu-S0hy7yG-14">
          <mxGeometry relative="1" as="geometry" />
        </mxCell>
        <mxCell id="kqvG3StUOLTu-S0hy7yG-12" value="CatagoryList" style="rounded=1;whiteSpace=wrap;html=1;" vertex="1" parent="1">
          <mxGeometry x="340" y="320" width="80" height="40" as="geometry" />
        </mxCell>
        <mxCell id="kqvG3StUOLTu-S0hy7yG-13" value="CreateCatagory" style="rounded=1;whiteSpace=wrap;html=1;" vertex="1" parent="1">
          <mxGeometry x="450" y="320" width="90" height="40" as="geometry" />
        </mxCell>
        <mxCell id="kqvG3StUOLTu-S0hy7yG-14" value="CatagoryDetail" style="rounded=1;whiteSpace=wrap;html=1;" vertex="1" parent="1">
          <mxGeometry x="340" y="390" width="80" height="40" as="geometry" />
        </mxCell>
        <mxCell id="kqvG3StUOLTu-S0hy7yG-43" style="edgeStyle=orthogonalEdgeStyle;rounded=0;orthogonalLoop=1;jettySize=auto;html=1;" edge="1" parent="1" source="kqvG3StUOLTu-S0hy7yG-18" target="kqvG3StUOLTu-S0hy7yG-19">
          <mxGeometry relative="1" as="geometry" />
        </mxCell>
        <mxCell id="kqvG3StUOLTu-S0hy7yG-18" value="CompanyList" style="rounded=1;whiteSpace=wrap;html=1;" vertex="1" parent="1">
          <mxGeometry x="50" y="320" width="80" height="40" as="geometry" />
        </mxCell>
        <mxCell id="kqvG3StUOLTu-S0hy7yG-19" value="CompanyDetail" style="rounded=1;whiteSpace=wrap;html=1;" vertex="1" parent="1">
          <mxGeometry x="45" y="390" width="90" height="40" as="geometry" />
        </mxCell>
        <mxCell id="kqvG3StUOLTu-S0hy7yG-20" value="CreateCompany" style="rounded=1;whiteSpace=wrap;html=1;" vertex="1" parent="1">
          <mxGeometry x="160" y="320" width="90" height="40" as="geometry" />
        </mxCell>
        <mxCell id="kqvG3StUOLTu-S0hy7yG-46" style="edgeStyle=orthogonalEdgeStyle;rounded=0;orthogonalLoop=1;jettySize=auto;html=1;" edge="1" parent="1" source="kqvG3StUOLTu-S0hy7yG-22" target="kqvG3StUOLTu-S0hy7yG-23">
          <mxGeometry relative="1" as="geometry" />
        </mxCell>
        <mxCell id="kqvG3StUOLTu-S0hy7yG-22" value="JobList" style="rounded=1;whiteSpace=wrap;html=1;" vertex="1" parent="1">
          <mxGeometry x="-260" y="320" width="80" height="40" as="geometry" />
        </mxCell>
        <mxCell id="kqvG3StUOLTu-S0hy7yG-23" value="JobDetail" style="rounded=1;whiteSpace=wrap;html=1;" vertex="1" parent="1">
          <mxGeometry x="-260" y="390" width="80" height="40" as="geometry" />
        </mxCell>
        <mxCell id="kqvG3StUOLTu-S0hy7yG-24" value="CreateJob" style="rounded=1;whiteSpace=wrap;html=1;" vertex="1" parent="1">
          <mxGeometry x="-150" y="320" width="80" height="40" as="geometry" />
        </mxCell>
      </root>
    </mxGraphModel>
  </diagram>
</mxfile>
